<?xml version="1.0" encoding="utf-8"?>
<!-- Generator: Adobe Illustrator 19.1.0, SVG Export Plug-In . SVG Version: 6.00 Build 0)  -->
<svg version="1.1" id="Layer_1" xmlns="http://www.w3.org/2000/svg" xmlns:xlink="http://www.w3.org/1999/xlink" x="0px" y="0px"
	 viewBox="0 0 166.749 202.18" enable-background="new 0 0 166.749 202.18" xml:space="preserve">
<g>
	<path fill="#FEFEFB" d="M13.608,54.077c0.623,1.2,1.451,2.172,2.483,2.916s2.243,1.296,3.636,1.655
		c1.392,0.36,2.832,0.54,4.32,0.54c1.008,0,2.088-0.083,3.24-0.252c1.152-0.167,2.231-0.491,3.24-0.972
		c1.008-0.479,1.847-1.14,2.52-1.98c0.672-0.839,1.008-1.907,1.008-3.203c0-1.393-0.444-2.521-1.332-3.385
		c-0.889-0.863-2.052-1.584-3.491-2.16c-1.44-0.575-3.073-1.079-4.896-1.512c-1.824-0.432-3.672-0.911-5.544-1.439
		c-1.92-0.479-3.792-1.068-5.616-1.765c-1.824-0.695-3.456-1.595-4.896-2.7c-1.44-1.104-2.604-2.483-3.492-4.14
		c-0.889-1.656-1.332-3.659-1.332-6.012c0-2.64,0.563-4.933,1.692-6.876c1.127-1.944,2.603-3.564,4.428-4.86
		c1.823-1.296,3.888-2.256,6.191-2.88c2.305-0.623,4.608-0.936,6.912-0.936c2.688,0,5.268,0.3,7.74,0.899
		c2.472,0.601,4.668,1.573,6.588,2.916c1.92,1.345,3.443,3.061,4.572,5.148c1.127,2.088,1.692,4.62,1.692,7.596H32.328
		c-0.097-1.535-0.421-2.808-0.972-3.816c-0.553-1.008-1.285-1.8-2.196-2.376c-0.912-0.575-1.956-0.982-3.132-1.224
		c-1.177-0.239-2.461-0.36-3.853-0.36c-0.912,0-1.824,0.097-2.735,0.288c-0.913,0.192-1.741,0.529-2.484,1.009
		c-0.745,0.479-1.356,1.079-1.836,1.8c-0.48,0.72-0.72,1.632-0.72,2.735c0,1.009,0.19,1.825,0.575,2.448
		c0.384,0.624,1.14,1.2,2.269,1.729c1.127,0.528,2.688,1.056,4.68,1.584c1.991,0.528,4.596,1.2,7.812,2.016
		c0.959,0.192,2.291,0.54,3.996,1.044c1.703,0.504,3.395,1.309,5.075,2.412c1.68,1.104,3.133,2.581,4.356,4.428
		C44.388,46.242,45,48.605,45,51.485c0,2.353-0.457,4.536-1.368,6.553c-0.912,2.016-2.268,3.756-4.067,5.22
		c-1.801,1.465-4.032,2.604-6.696,3.42s-5.749,1.224-9.252,1.224c-2.833,0-5.58-0.349-8.244-1.044s-5.017-1.787-7.056-3.275
		c-2.041-1.487-3.661-3.384-4.86-5.688c-1.2-2.304-1.776-5.04-1.729-8.208h10.944C12.672,51.413,12.983,52.878,13.608,54.077z"/>
	<path fill="#FEFEFB" d="M71.063,29.525v6.841h-7.488v18.432c0,1.728,0.288,2.88,0.864,3.456s1.729,0.864,3.456,0.864
		c0.576,0,1.127-0.024,1.656-0.072c0.527-0.048,1.031-0.119,1.512-0.216v7.92c-0.864,0.144-1.824,0.239-2.88,0.288
		c-1.057,0.047-2.088,0.071-3.096,0.071c-1.584,0-3.085-0.107-4.5-0.323c-1.417-0.217-2.664-0.636-3.744-1.261
		c-1.08-0.623-1.933-1.512-2.557-2.664c-0.624-1.151-0.936-2.663-0.936-4.535v-21.96h-6.192v-6.841h6.192V18.366h10.224v11.159
		H71.063z"/>
	<path fill="#FEFEFB" d="M75.526,40.973c0.144-2.399,0.743-4.392,1.8-5.976c1.056-1.584,2.399-2.855,4.032-3.816
		c1.631-0.96,3.467-1.644,5.508-2.052c2.04-0.407,4.092-0.612,6.156-0.612c1.872,0,3.768,0.133,5.688,0.396s3.672,0.78,5.257,1.548
		c1.583,0.769,2.879,1.836,3.887,3.204s1.512,3.18,1.512,5.436v19.368c0,1.681,0.096,3.288,0.288,4.824
		c0.191,1.536,0.527,2.688,1.008,3.456h-10.368c-0.192-0.576-0.349-1.163-0.468-1.765c-0.12-0.6-0.205-1.211-0.252-1.836
		c-1.632,1.681-3.553,2.856-5.76,3.528c-2.209,0.672-4.464,1.008-6.769,1.008c-1.776,0-3.432-0.216-4.968-0.647
		c-1.536-0.433-2.88-1.104-4.032-2.017c-1.151-0.911-2.052-2.063-2.699-3.456c-0.648-1.392-0.973-3.047-0.973-4.968
		c0-2.111,0.371-3.852,1.116-5.22c0.744-1.368,1.703-2.459,2.88-3.276c1.176-0.815,2.521-1.428,4.032-1.836
		c1.512-0.407,3.035-0.731,4.572-0.972c1.535-0.24,3.047-0.433,4.536-0.576c1.487-0.144,2.808-0.36,3.96-0.648
		c1.151-0.287,2.062-0.707,2.735-1.26c0.672-0.551,0.983-1.355,0.937-2.412c0-1.104-0.181-1.979-0.54-2.628
		c-0.36-0.647-0.841-1.151-1.44-1.512c-0.601-0.36-1.296-0.6-2.088-0.72c-0.792-0.119-1.645-0.181-2.556-0.181
		c-2.017,0-3.601,0.433-4.752,1.296c-1.152,0.864-1.825,2.305-2.017,4.32H75.526z M99.143,48.534
		c-0.433,0.385-0.973,0.684-1.62,0.899c-0.648,0.216-1.345,0.396-2.088,0.54c-0.745,0.145-1.524,0.265-2.34,0.36
		c-0.817,0.097-1.633,0.216-2.448,0.359c-0.769,0.145-1.524,0.337-2.269,0.576c-0.744,0.241-1.393,0.565-1.943,0.973
		c-0.553,0.408-0.997,0.925-1.332,1.548c-0.337,0.624-0.504,1.416-0.504,2.376c0,0.912,0.167,1.681,0.504,2.304
		c0.335,0.624,0.792,1.116,1.368,1.476c0.575,0.36,1.247,0.612,2.016,0.757c0.768,0.144,1.56,0.216,2.376,0.216
		c2.016,0,3.575-0.336,4.68-1.008c1.104-0.672,1.92-1.477,2.448-2.412c0.527-0.937,0.852-1.884,0.972-2.845
		c0.12-0.959,0.181-1.728,0.181-2.304V48.534z"/>
	<path fill="#FEFEFB" d="M127.005,29.525v6.912h0.144c0.479-1.151,1.127-2.22,1.944-3.204c0.815-0.982,1.751-1.823,2.808-2.52
		c1.056-0.695,2.184-1.235,3.384-1.62c1.199-0.384,2.448-0.576,3.744-0.576c0.672,0,1.415,0.12,2.232,0.36v9.504
		c-0.48-0.096-1.057-0.18-1.729-0.252c-0.673-0.072-1.32-0.108-1.943-0.108c-1.872,0-3.456,0.313-4.752,0.937
		c-1.297,0.624-2.341,1.476-3.133,2.556s-1.356,2.34-1.691,3.78c-0.337,1.439-0.504,3-0.504,4.68v16.776h-10.225V29.525H127.005z"/>
	<path fill="#FEFEFB" d="M162.933,42.701v8.783h-21.672v-8.783H162.933z"/>
	<path fill="#FEFEFB" d="M15.553,75.741v18.721h0.144c1.248-1.92,2.939-3.323,5.076-4.212c2.135-0.888,4.356-1.332,6.66-1.332
		c1.872,0,3.719,0.385,5.544,1.151c1.823,0.769,3.467,1.944,4.932,3.528c1.464,1.584,2.651,3.612,3.564,6.084
		c0.911,2.473,1.368,5.412,1.368,8.819c0,3.409-0.457,6.349-1.368,8.82c-0.913,2.473-2.101,4.5-3.564,6.084
		c-1.465,1.584-3.108,2.761-4.932,3.528c-1.825,0.767-3.672,1.151-5.544,1.151c-2.736,0-5.185-0.432-7.344-1.296
		c-2.16-0.863-3.793-2.327-4.896-4.392h-0.144v4.752H5.328V75.741H15.553z M32.112,104.036c-0.336-1.439-0.864-2.711-1.584-3.815
		c-0.72-1.104-1.62-1.98-2.7-2.628c-1.08-0.648-2.388-0.973-3.924-0.973c-1.488,0-2.784,0.324-3.888,0.973
		c-1.104,0.647-2.017,1.524-2.736,2.628c-0.72,1.104-1.249,2.376-1.584,3.815c-0.336,1.44-0.504,2.952-0.504,4.536
		c0,1.537,0.168,3.024,0.504,4.464c0.335,1.44,0.864,2.713,1.584,3.816c0.72,1.104,1.632,1.979,2.736,2.628
		c1.104,0.648,2.399,0.972,3.888,0.972c1.536,0,2.844-0.323,3.924-0.972s1.98-1.523,2.7-2.628c0.72-1.104,1.248-2.376,1.584-3.816
		c0.335-1.439,0.504-2.927,0.504-4.464C32.616,106.989,32.447,105.477,32.112,104.036z"/>
	<path fill="#FEFEFB" d="M48.888,101.372c0.144-2.399,0.743-4.392,1.8-5.976c1.056-1.584,2.399-2.855,4.032-3.815
		c1.631-0.96,3.467-1.644,5.508-2.053c2.04-0.407,4.092-0.611,6.156-0.611c1.872,0,3.768,0.133,5.688,0.396
		c1.92,0.265,3.672,0.781,5.257,1.548c1.584,0.769,2.88,1.836,3.888,3.204s1.512,3.181,1.512,5.436v19.368
		c0,1.681,0.096,3.289,0.288,4.824c0.191,1.537,0.527,2.688,1.008,3.456H73.655c-0.192-0.576-0.349-1.163-0.468-1.764
		c-0.12-0.6-0.205-1.212-0.252-1.836c-1.632,1.681-3.553,2.856-5.76,3.527c-2.209,0.672-4.464,1.008-6.769,1.008
		c-1.776,0-3.432-0.216-4.968-0.647s-2.88-1.104-4.032-2.016c-1.151-0.912-2.052-2.063-2.699-3.456
		c-0.648-1.392-0.973-3.048-0.973-4.969c0-2.111,0.371-3.852,1.116-5.22c0.744-1.368,1.703-2.459,2.88-3.276
		c1.176-0.815,2.521-1.427,4.032-1.836c1.512-0.407,3.035-0.73,4.572-0.972c1.535-0.239,3.047-0.432,4.536-0.576
		c1.487-0.144,2.808-0.359,3.96-0.647c1.151-0.288,2.062-0.708,2.735-1.261c0.672-0.551,0.983-1.355,0.937-2.411
		c0-1.104-0.181-1.98-0.54-2.629c-0.36-0.647-0.841-1.151-1.44-1.512c-0.601-0.359-1.296-0.6-2.088-0.72
		c-0.792-0.119-1.645-0.18-2.556-0.18c-2.017,0-3.601,0.432-4.752,1.296c-1.152,0.863-1.825,2.304-2.017,4.319H48.888z
		 M72.504,108.933c-0.433,0.385-0.973,0.684-1.62,0.899c-0.648,0.217-1.345,0.396-2.088,0.54c-0.745,0.145-1.524,0.265-2.34,0.36
		c-0.817,0.097-1.633,0.216-2.448,0.36c-0.769,0.144-1.524,0.336-2.269,0.575c-0.744,0.241-1.393,0.565-1.943,0.973
		c-0.553,0.408-0.997,0.925-1.332,1.548c-0.337,0.624-0.504,1.416-0.504,2.376c0,0.912,0.167,1.681,0.504,2.304
		c0.335,0.625,0.792,1.116,1.368,1.477c0.575,0.359,1.247,0.611,2.016,0.756c0.768,0.144,1.56,0.216,2.376,0.216
		c2.016,0,3.575-0.335,4.68-1.008c1.104-0.672,1.92-1.477,2.448-2.412c0.527-0.937,0.852-1.883,0.972-2.844
		c0.12-0.96,0.181-1.729,0.181-2.305V108.933z"/>
	<path fill="#FEFEFB" d="M99.251,117.897c0.455,0.792,1.044,1.44,1.764,1.944s1.548,0.876,2.484,1.115
		c0.936,0.241,1.908,0.36,2.916,0.36c0.72,0,1.476-0.083,2.268-0.252c0.792-0.168,1.512-0.432,2.16-0.792s1.188-0.839,1.62-1.44
		c0.432-0.6,0.647-1.355,0.647-2.268c0-1.535-1.02-2.688-3.06-3.456c-2.041-0.768-4.885-1.535-8.532-2.304
		c-1.488-0.336-2.94-0.731-4.355-1.188c-1.417-0.455-2.677-1.055-3.78-1.8c-1.104-0.743-1.992-1.68-2.664-2.808
		c-0.673-1.128-1.008-2.508-1.008-4.141c0-2.399,0.468-4.367,1.404-5.903c0.936-1.536,2.171-2.747,3.708-3.636
		c1.535-0.888,3.263-1.513,5.184-1.872c1.919-0.36,3.888-0.54,5.904-0.54c2.016,0,3.971,0.192,5.867,0.576s3.588,1.032,5.076,1.943
		c1.487,0.912,2.724,2.124,3.708,3.636c0.983,1.512,1.572,3.42,1.765,5.725h-9.721c-0.144-1.968-0.889-3.3-2.231-3.996
		c-1.345-0.695-2.929-1.044-4.752-1.044c-0.576,0-1.2,0.036-1.872,0.107c-0.673,0.072-1.285,0.229-1.836,0.468
		c-0.553,0.241-1.021,0.589-1.404,1.044c-0.385,0.457-0.576,1.069-0.576,1.837c0,0.912,0.336,1.655,1.008,2.231
		s1.549,1.044,2.628,1.404c1.08,0.359,2.315,0.684,3.708,0.972s2.809,0.601,4.248,0.937c1.487,0.336,2.94,0.744,4.356,1.224
		c1.415,0.48,2.675,1.116,3.78,1.908c1.104,0.792,1.991,1.776,2.664,2.952c0.671,1.177,1.008,2.628,1.008,4.355
		c0,2.448-0.493,4.5-1.477,6.156c-0.984,1.656-2.268,2.988-3.852,3.996s-3.396,1.717-5.437,2.124s-4.116,0.611-6.228,0.611
		c-2.16,0-4.272-0.216-6.335-0.647c-2.064-0.432-3.9-1.152-5.508-2.16c-1.609-1.008-2.929-2.34-3.96-3.996
		c-1.033-1.656-1.597-3.731-1.692-6.228h9.72C98.566,116.158,98.794,117.105,99.251,117.897z"/>
	<path fill="#FEFEFB" d="M140.253,118.221c1.535,1.488,3.744,2.231,6.624,2.231c2.063,0,3.84-0.515,5.328-1.548
		c1.487-1.031,2.399-2.124,2.735-3.275h9c-1.439,4.464-3.647,7.656-6.623,9.575c-2.978,1.921-6.577,2.88-10.801,2.88
		c-2.928,0-5.568-0.468-7.92-1.403c-2.353-0.937-4.345-2.269-5.976-3.996c-1.633-1.729-2.893-3.791-3.78-6.192
		c-0.889-2.399-1.332-5.04-1.332-7.92c0-2.783,0.456-5.375,1.368-7.775c0.911-2.4,2.207-4.476,3.888-6.229
		c1.68-1.751,3.684-3.132,6.013-4.14c2.327-1.008,4.907-1.512,7.739-1.512c3.168,0,5.928,0.611,8.28,1.836
		c2.352,1.224,4.284,2.868,5.796,4.932c1.512,2.064,2.604,4.417,3.276,7.056c0.671,2.641,0.911,5.4,0.72,8.28h-26.856
		C137.877,114.332,138.716,116.734,140.253,118.221z M151.809,98.637c-1.224-1.344-3.084-2.017-5.58-2.017
		c-1.632,0-2.987,0.277-4.067,0.828c-1.08,0.553-1.944,1.236-2.592,2.052c-0.648,0.817-1.105,1.682-1.368,2.593
		c-0.265,0.912-0.421,1.728-0.469,2.447h16.633C153.885,101.949,153.034,99.981,151.809,98.637z"/>
	<path fill="#F1C40F" d="M86.398,187.153c-2.448,1.032-4.921,1.549-7.416,1.549c-3.937,0-7.477-0.685-10.62-2.053
		c-3.145-1.367-5.796-3.251-7.956-5.651c-2.159-2.399-3.815-5.221-4.968-8.46c-1.152-3.24-1.728-6.732-1.728-10.477
		c0-3.839,0.575-7.403,1.728-10.691c1.152-3.287,2.809-6.156,4.968-8.604c2.16-2.448,4.812-4.367,7.956-5.76
		c3.144-1.392,6.684-2.088,10.62-2.088c2.64,0,5.195,0.396,7.668,1.188c2.472,0.792,4.704,1.957,6.696,3.492
		c1.991,1.537,3.636,3.433,4.932,5.688c1.296,2.257,2.088,4.849,2.376,7.775h-10.8c-0.673-2.88-1.969-5.04-3.888-6.479
		c-1.921-1.44-4.248-2.16-6.984-2.16c-2.545,0-4.704,0.493-6.479,1.476c-1.776,0.984-3.217,2.305-4.32,3.96
		c-1.104,1.656-1.908,3.541-2.412,5.652c-0.504,2.112-0.756,4.297-0.756,6.552c0,2.16,0.252,4.261,0.756,6.3
		c0.504,2.041,1.308,3.877,2.412,5.509c1.104,1.632,2.544,2.94,4.32,3.924c1.775,0.984,3.935,1.476,6.479,1.476
		c3.744,0,6.636-0.947,8.676-2.844c2.04-1.896,3.229-4.644,3.564-8.244H79.847v-8.424h21.6v27.792h-7.199l-1.152-5.832
		C91.078,184.309,88.847,186.121,86.398,187.153z"/>
	<path fill="#F1C40F" d="M109.725,160.873c0.912-2.424,2.208-4.488,3.889-6.192c1.68-1.703,3.695-3.023,6.048-3.96
		c2.352-0.936,4.991-1.404,7.92-1.404c2.928,0,5.58,0.469,7.956,1.404c2.376,0.937,4.403,2.257,6.084,3.96
		c1.68,1.704,2.976,3.769,3.888,6.192c0.911,2.424,1.368,5.124,1.368,8.1c0,2.977-0.457,5.664-1.368,8.064
		c-0.912,2.4-2.208,4.452-3.888,6.155c-1.681,1.705-3.708,3.014-6.084,3.925s-5.028,1.367-7.956,1.367
		c-2.929,0-5.568-0.456-7.92-1.367c-2.353-0.911-4.368-2.22-6.048-3.925c-1.681-1.703-2.977-3.755-3.889-6.155
		s-1.367-5.088-1.367-8.064C108.358,165.997,108.813,163.297,109.725,160.873z M119.013,173.329c0.288,1.416,0.78,2.688,1.477,3.815
		c0.695,1.129,1.62,2.028,2.771,2.7c1.152,0.673,2.593,1.008,4.32,1.008c1.729,0,3.18-0.335,4.356-1.008
		c1.175-0.672,2.111-1.571,2.808-2.7c0.695-1.127,1.188-2.399,1.476-3.815c0.288-1.415,0.433-2.868,0.433-4.356
		c0-1.487-0.145-2.952-0.433-4.392c-0.288-1.44-0.78-2.712-1.476-3.816c-0.696-1.104-1.633-2.004-2.808-2.7
		c-1.177-0.695-2.628-1.044-4.356-1.044c-1.728,0-3.168,0.349-4.32,1.044c-1.151,0.696-2.076,1.597-2.771,2.7
		c-0.696,1.104-1.188,2.376-1.477,3.816c-0.288,1.439-0.432,2.904-0.432,4.392C118.582,170.461,118.725,171.914,119.013,173.329z"/>
	<path fill="#FEFEFB" d="M162.357,176.461v11.088h-11.304v-11.088H162.357z"/>
</g>
<rect x="1.707" y="0" fill="#FEFEFB" width="161.21" height="8.782"/>
</svg>
