<?xml version="1.0" encoding="utf-8"?>
<svg version="1.1" id="Layer_1" xmlns="http://www.w3.org/2000/svg" xmlns:xlink="http://www.w3.org/1999/xlink" x="0px" y="0px"
	 viewBox="0 0 201.589 247.388" enable-background="new 0 0 201.589 247.388" xml:space="preserve">
<g>
	<path fill="#FEFEFB" d="M134.84,114.981l51.408-16.632v11.592l-36.144,11.448v0.144l36.144,11.593v11.663l-51.408-17.063V114.981z"
		/>
	<path fill="#231F20" d="M136.784,172.149c1.919,2.976,5.112,5.184,9.576,6.623v-9c-1.152-0.336-2.245-1.248-3.276-2.735
		c-0.831-1.198-1.311-2.592-1.472-4.163h-7.663C134.155,166.445,135.099,169.537,136.784,172.149z"/>
	<path fill="#231F20" d="M163.353,166.641c-1.345,1.225-3.312,2.076-5.904,2.557v-6.323h-6.48v16.547
		c2.88,0.191,5.64-0.049,8.28-0.72c2.64-0.673,4.991-1.765,7.056-3.276c2.063-1.512,3.708-3.444,4.933-5.796
		c1.022-1.966,1.612-4.22,1.78-6.755h-7.786C164.971,164.478,164.347,165.735,163.353,166.641z"/>
	<path fill="#FEFEFB" d="M143.769,155.085c1.486-1.537,3.888-2.376,7.199-2.521v10.31h6.48v-10.31
		c0.72,0.048,1.535,0.204,2.448,0.469c0.911,0.263,1.774,0.72,2.592,1.368c0.815,0.647,1.499,1.512,2.052,2.592
		c0.552,1.08,0.828,2.436,0.828,4.067c0,0.648-0.048,1.251-0.138,1.814h7.786c0.033-0.499,0.056-1.005,0.056-1.526
		c0-2.832-0.504-5.412-1.512-7.739c-1.009-2.329-2.389-4.333-4.141-6.013c-1.753-1.681-3.828-2.977-6.228-3.888
		c-2.401-0.912-4.993-1.368-7.776-1.368c-2.88,0-5.521,0.443-7.92,1.332c-2.4,0.888-4.464,2.147-6.192,3.78
		c-1.728,1.631-3.06,3.623-3.996,5.976c-0.936,2.352-1.403,4.992-1.403,7.92c0,0.518,0.015,1.026,0.044,1.526h7.663
		c-0.039-0.381-0.075-0.763-0.075-1.165C141.536,158.829,142.279,156.62,143.769,155.085z"/>
	<path fill="#231F20" d="M172.064,195.189h-6.912v0.144c1.151,0.479,2.22,1.127,3.204,1.944c0.982,0.815,1.823,1.751,2.52,2.808
		c0.695,1.056,1.235,2.184,1.62,3.384c0.384,1.199,0.576,2.448,0.576,3.744c0,0.672-0.12,1.415-0.36,2.232h-9.504
		c0.096-0.48,0.18-1.057,0.252-1.729c0.072-0.673,0.108-1.32,0.108-1.943c0-1.872-0.313-3.456-0.937-4.752
		c-0.624-1.297-1.476-2.341-2.556-3.133s-2.34-1.356-3.78-1.691c-1.439-0.337-3-0.504-4.68-0.504H134.84v-10.225h37.225V195.189z"/>
	<path fill="#231F20" d="M123.752,227.228c-1.296-1.969-1.944-4.704-1.944-8.208c0-1.056,0.036-2.1,0.108-3.132
		s0.156-2.076,0.252-3.132h8.424c-0.096,0.96-0.191,1.944-0.288,2.952c-0.096,1.008-0.119,2.016-0.071,3.023
		c0.144,1.344,0.673,2.341,1.584,2.988c0.912,0.648,1.92,0.972,3.023,0.972c0.815,0,1.584-0.144,2.305-0.432l34.92-13.032V220.1
		l-25.488,8.424v0.145l25.488,8.136v10.584l-41.832-15.552C127.208,230.731,125.048,229.195,123.752,227.228z"/>
	<path fill="#FEFEFB" d="M125.849,110.519h-18.721v0.144c1.92,1.248,3.323,2.939,4.212,5.076c0.888,2.135,1.332,4.356,1.332,6.66
		c0,1.872-0.385,3.719-1.151,5.544c-0.769,1.823-1.944,3.467-3.528,4.932c-1.584,1.464-3.612,2.651-6.084,3.564
		c-2.473,0.911-5.412,1.368-8.819,1.368c-3.409,0-6.349-0.457-8.82-1.368c-2.473-0.913-4.5-2.101-6.084-3.564
		c-1.584-1.465-2.761-3.108-3.528-4.932c-0.767-1.825-1.151-3.672-1.151-5.544c0-2.736,0.432-5.185,1.296-7.344
		c0.863-2.16,2.327-3.793,4.392-4.896v-0.144H74.44v-9.721h51.408V110.519z M97.553,127.078c1.439-0.336,2.711-0.864,3.815-1.584
		c1.104-0.72,1.98-1.62,2.628-2.7c0.648-1.08,0.973-2.388,0.973-3.924c0-1.488-0.324-2.784-0.973-3.888
		c-0.647-1.104-1.524-2.017-2.628-2.736c-1.104-0.72-2.376-1.249-3.815-1.584c-1.44-0.336-2.952-0.504-4.536-0.504
		c-1.537,0-3.024,0.168-4.464,0.504c-1.44,0.335-2.713,0.864-3.816,1.584c-1.104,0.72-1.979,1.632-2.628,2.736
		c-0.648,1.104-0.972,2.399-0.972,3.888c0,1.536,0.323,2.844,0.972,3.924s1.523,1.98,2.628,2.7c1.104,0.72,2.376,1.248,3.816,1.584
		c1.439,0.335,2.927,0.504,4.464,0.504C94.601,127.582,96.112,127.413,97.553,127.078z"/>
	<path fill="#231F20" d="M101.116,180.285c2.424-0.912,4.487-2.208,6.192-3.888c1.703-1.681,3.023-3.708,3.96-6.084
		c0.879-2.233,1.329-4.719,1.382-7.439h-7.709c-0.065,1.497-0.394,2.785-1.017,3.84c-0.696,1.175-1.597,2.111-2.7,2.808
		c-1.104,0.695-2.376,1.188-3.816,1.476c-1.439,0.288-2.904,0.433-4.392,0.433c-1.488,0-2.941-0.145-4.356-0.433
		c-1.416-0.288-2.688-0.78-3.815-1.476c-1.129-0.696-2.028-1.633-2.7-2.808c-0.603-1.055-0.919-2.342-0.982-3.84h-7.637
		c0.052,2.72,0.49,5.206,1.347,7.439c0.911,2.376,2.22,4.403,3.925,6.084c1.703,1.68,3.755,2.976,6.155,3.888
		c2.4,0.911,5.088,1.368,8.064,1.368C95.992,181.653,98.692,181.196,101.116,180.285z"/>
	<path fill="#FEFEFB" d="M81.137,162.357c0-1.728,0.335-3.168,1.008-4.32c0.672-1.151,1.571-2.076,2.7-2.771
		c1.127-0.696,2.399-1.188,3.815-1.477c1.415-0.288,2.868-0.432,4.356-0.432c1.487,0,2.952,0.144,4.392,0.432
		c1.44,0.288,2.712,0.78,3.816,1.477c1.104,0.695,2.004,1.62,2.7,2.771c0.695,1.152,1.044,2.593,1.044,4.32
		c0,0.179-0.02,0.343-0.027,0.517h7.709c0.003-0.174,0.021-0.34,0.021-0.517c0-2.929-0.468-5.568-1.403-7.92
		c-0.937-2.353-2.257-4.368-3.96-6.048c-1.705-1.681-3.769-2.977-6.192-3.889s-5.124-1.367-8.1-1.367
		c-2.977,0-5.664,0.455-8.064,1.367s-4.452,2.208-6.155,3.889c-1.705,1.68-3.014,3.695-3.925,6.048
		c-0.911,2.352-1.367,4.991-1.367,7.92c0,0.176,0.017,0.342,0.021,0.517h7.637C81.156,162.701,81.137,162.537,81.137,162.357z"/>
	<path fill="#231F20" d="M125.849,198.79H74.44v-10.225h51.408V198.79z"/>
	<path fill="#231F20" d="M79.192,233.276c-2.016-1.2-3.469-2.771-4.355-4.716c-0.888-1.943-1.332-4.14-1.332-6.588
		c0-2.784,0.539-5.232,1.619-7.344c1.08-2.113,2.544-3.853,4.393-5.22c1.847-1.368,3.971-2.401,6.372-3.097
		c2.399-0.696,4.896-1.044,7.487-1.044c2.496,0,4.907,0.348,7.236,1.044c2.328,0.695,4.38,1.729,6.156,3.097
		c1.774,1.367,3.204,3.083,4.283,5.147c1.08,2.063,1.62,4.464,1.62,7.2c0,2.207-0.468,4.308-1.403,6.3
		c-0.937,1.991-2.316,3.564-4.141,4.716v0.145h18.721v10.224H74.44v-9.72h4.752V233.276z M97.589,232.845
		c1.415-0.288,2.663-0.78,3.743-1.476c1.08-0.696,1.956-1.597,2.628-2.7c0.672-1.104,1.009-2.496,1.009-4.176
		c0-1.681-0.337-3.097-1.009-4.248c-0.672-1.152-1.56-2.077-2.663-2.772c-1.105-0.696-2.365-1.2-3.78-1.512
		c-1.417-0.312-2.893-0.468-4.428-0.468c-1.44,0-2.881,0.167-4.32,0.504c-1.44,0.335-2.725,0.875-3.853,1.62
		c-1.128,0.743-2.04,1.68-2.735,2.808c-0.696,1.127-1.044,2.484-1.044,4.068c0,1.68,0.335,3.083,1.008,4.212
		c0.672,1.127,1.571,2.027,2.7,2.7c1.127,0.671,2.412,1.151,3.852,1.439c1.44,0.288,2.928,0.432,4.464,0.432
		S96.172,233.133,97.589,232.845z"/>
	<path fill="#FEFEFB" d="M18.792,28.008c-2.016-1.2-3.469-2.771-4.355-4.716c-0.888-1.943-1.332-4.14-1.332-6.588
		c0-2.784,0.539-5.232,1.619-7.344c1.08-2.113,2.544-3.853,4.393-5.22c1.847-1.368,3.971-2.401,6.372-3.097
		C27.888,0.348,30.384,0,32.976,0c2.496,0,4.907,0.348,7.236,1.044c2.328,0.695,4.38,1.729,6.156,3.097
		c1.775,1.367,3.204,3.083,4.284,5.147c1.08,2.063,1.62,4.464,1.62,7.2c0,2.207-0.469,4.308-1.404,6.3
		c-0.937,1.991-2.316,3.564-4.14,4.716v0.145h18.72v10.224H14.04v-9.72h4.752V28.008z M37.188,27.576
		c1.415-0.288,2.663-0.78,3.743-1.476c1.08-0.696,1.956-1.597,2.628-2.7c0.672-1.104,1.009-2.496,1.009-4.176
		c0-1.681-0.337-3.097-1.009-4.248c-0.672-1.152-1.56-2.077-2.663-2.772c-1.105-0.696-2.365-1.2-3.78-1.512
		c-1.417-0.312-2.893-0.468-4.428-0.468c-1.44,0-2.881,0.167-4.32,0.504c-1.44,0.335-2.725,0.875-3.853,1.62
		c-1.128,0.743-2.04,1.68-2.735,2.808c-0.696,1.127-1.044,2.484-1.044,4.068c0,1.68,0.335,3.083,1.008,4.212
		c0.672,1.127,1.571,2.027,2.7,2.7c1.127,0.671,2.412,1.151,3.852,1.439c1.44,0.288,2.928,0.432,4.464,0.432
		S35.771,27.864,37.188,27.576z"/>
	<path fill="#FEFEFB" d="M22.968,56.52c-1.488,1.535-2.231,3.744-2.231,6.624c0,2.063,0.515,3.84,1.548,5.328
		c1.031,1.487,2.124,2.399,3.275,2.735v9c-4.464-1.439-7.656-3.647-9.575-6.623c-1.921-2.978-2.88-6.577-2.88-10.801
		c0-2.928,0.468-5.568,1.403-7.92c0.937-2.353,2.269-4.345,3.996-5.976c1.729-1.633,3.791-2.893,6.192-3.78
		c2.399-0.889,5.04-1.332,7.92-1.332c2.783,0,5.375,0.456,7.775,1.368c2.4,0.911,4.476,2.207,6.229,3.888
		c1.752,1.68,3.132,3.684,4.14,6.013c1.008,2.327,1.513,4.907,1.513,7.739c0,3.168-0.612,5.928-1.836,8.28
		c-1.225,2.352-2.869,4.284-4.933,5.796c-2.064,1.512-4.417,2.604-7.056,3.276c-2.641,0.671-5.4,0.911-8.28,0.72V53.999
		C26.856,54.144,24.455,54.982,22.968,56.52z M42.552,68.075c1.344-1.224,2.017-3.084,2.017-5.58c0-1.632-0.277-2.987-0.828-4.067
		c-0.553-1.08-1.236-1.944-2.052-2.592c-0.817-0.648-1.682-1.105-2.593-1.368c-0.912-0.265-1.728-0.421-2.447-0.469v16.633
		C39.24,70.151,41.208,69.3,42.552,68.075z"/>
	<path fill="#FEFEFB" d="M23.292,95.507c-0.792,0.455-1.44,1.044-1.944,1.764s-0.876,1.548-1.115,2.484
		c-0.241,0.936-0.36,1.908-0.36,2.916c0,0.72,0.083,1.476,0.252,2.268c0.168,0.792,0.432,1.512,0.792,2.16s0.839,1.188,1.44,1.62
		c0.6,0.432,1.355,0.647,2.268,0.647c1.535,0,2.688-1.02,3.456-3.06c0.768-2.041,1.535-4.885,2.304-8.532
		c0.336-1.488,0.731-2.94,1.188-4.355c0.455-1.417,1.055-2.677,1.8-3.78c0.743-1.104,1.68-1.992,2.808-2.664
		c1.128-0.673,2.508-1.008,4.141-1.008c2.399,0,4.367,0.468,5.903,1.404c1.536,0.936,2.748,2.171,3.637,3.708
		c0.888,1.535,1.512,3.263,1.872,5.184c0.359,1.919,0.54,3.888,0.54,5.904c0,2.016-0.192,3.971-0.576,5.867
		c-0.385,1.896-1.033,3.588-1.944,5.076c-0.912,1.487-2.124,2.724-3.636,3.708c-1.512,0.983-3.42,1.572-5.725,1.765v-9.721
		c1.968-0.144,3.3-0.889,3.996-2.231c0.695-1.345,1.044-2.929,1.044-4.752c0-0.576-0.035-1.2-0.107-1.872
		c-0.072-0.673-0.229-1.285-0.468-1.836c-0.241-0.553-0.589-1.021-1.044-1.404c-0.457-0.385-1.069-0.576-1.837-0.576
		c-0.912,0-1.655,0.336-2.231,1.008s-1.044,1.549-1.404,2.628c-0.359,1.08-0.684,2.315-0.972,3.708s-0.601,2.809-0.937,4.248
		c-0.336,1.487-0.744,2.94-1.224,4.356c-0.48,1.415-1.116,2.675-1.908,3.78c-0.792,1.104-1.776,1.991-2.952,2.664
		c-1.177,0.671-2.628,1.008-4.355,1.008c-2.448,0-4.5-0.493-6.156-1.477c-1.656-0.984-2.988-2.268-3.996-3.852
		s-1.717-3.396-2.124-5.437s-0.611-4.116-0.611-6.228c0-2.16,0.216-4.272,0.647-6.336c0.432-2.064,1.152-3.9,2.16-5.508
		c1.008-1.609,2.34-2.929,3.996-3.96c1.656-1.033,3.731-1.597,6.228-1.692v9.72C25.031,94.822,24.084,95.05,23.292,95.507z"/>
	<path fill="#FEFEFB" d="M57.024,125.854h8.424v10.225h-8.424V125.854z M51.264,136.078H14.04v-10.225h37.224V136.078z"/>
	<path fill="#FEFEFB" d="M6.84,161.998c0-1.825,0.373-3.433,1.116-4.824c0.745-1.393,2.077-2.329,3.996-2.808v-10.152
		c-2.111,0.144-3.924,0.731-5.437,1.764c-1.512,1.032-2.747,2.328-3.708,3.889c-0.959,1.559-1.667,3.287-2.124,5.184
		C0.229,156.945,0,158.805,0,160.63c0,0.78,0.026,1.522,0.064,2.244h6.81C6.855,162.589,6.84,162.3,6.84,161.998z"/>
	<path fill="#FEFEFB" d="M22.824,161.494c0-1.584,0.335-2.905,1.008-3.96c0.672-1.057,1.535-1.908,2.592-2.557
		c1.056-0.647,2.243-1.104,3.564-1.367c1.319-0.265,2.651-0.396,3.996-0.396c1.392,0,2.724,0.155,3.996,0.468
		c1.271,0.312,2.399,0.815,3.384,1.513c0.983,0.694,1.764,1.559,2.34,2.592c0.576,1.031,0.864,2.268,0.864,3.708
		c0,0.487-0.034,0.942-0.087,1.38h7.324c0.299-1.206,0.467-2.498,0.467-3.901c0-2.592-0.505-4.885-1.513-6.876
		c-1.008-1.992-2.364-3.66-4.067-5.004c-1.705-1.344-3.672-2.364-5.904-3.06c-2.232-0.696-4.549-1.044-6.948-1.044
		c-2.545,0-4.957,0.299-7.235,0.899c-2.281,0.6-4.273,1.548-5.977,2.845c-1.704,1.296-3.049,2.951-4.032,4.968
		c-0.984,2.016-1.476,4.415-1.476,7.2c0,1.365,0.193,2.685,0.536,3.972h7.277C22.868,162.431,22.824,161.975,22.824,161.494z"/>
	<path fill="#231F20" d="M51.264,170.206h-4.968v-0.145c2.16-1.248,3.695-2.796,4.608-4.644c0.389-0.789,0.678-1.645,0.901-2.544
		h-7.324c-0.129,1.075-0.407,2.011-0.85,2.796c-0.624,1.104-1.465,1.991-2.52,2.664c-1.057,0.672-2.269,1.152-3.637,1.439
		c-1.367,0.288-2.82,0.433-4.355,0.433c-1.345,0-2.628-0.18-3.853-0.54c-1.224-0.36-2.315-0.9-3.275-1.62
		c-0.961-0.72-1.729-1.633-2.304-2.736c-0.384-0.735-0.627-1.552-0.756-2.435h-7.277c0.224,0.839,0.499,1.666,0.869,2.471
		c0.936,2.04,2.387,3.611,4.355,4.716v0.145h-4.896c-2.64,0.047-4.824-0.589-6.553-1.908c-1.546-1.182-2.395-2.993-2.558-5.424
		h-6.81c0.172,3.233,0.722,5.9,1.664,7.979c1.151,2.544,2.556,4.488,4.212,5.832c1.655,1.344,3.444,2.22,5.363,2.628
		c1.921,0.407,3.624,0.612,5.112,0.612h34.848V170.206z"/>
	<path fill="#231F20" d="M51.264,197.854H46.08v0.216c2.16,1.296,3.731,2.976,4.716,5.04c0.983,2.063,1.477,4.176,1.477,6.336
		c0,2.735-0.373,4.979-1.116,6.731c-0.745,1.752-1.776,3.133-3.097,4.141s-2.928,1.716-4.823,2.124
		c-1.897,0.407-3.996,0.611-6.3,0.611H14.04v-10.224h21.024c3.071,0,5.363-0.48,6.876-1.44c1.512-0.96,2.268-2.663,2.268-5.111
		c0-2.784-0.828-4.801-2.484-6.048c-1.655-1.249-4.38-1.872-8.172-1.872H14.04v-10.225h37.224V197.854z"/>
	<path fill="#F1C40F" d="M25.128,242.564H14.04v-11.304h11.088V242.564z"/>
</g>
<rect x="192.807" y="97.979" fill="#FEFEFB" width="8.782" height="64.895"/>
<rect x="192.807" y="162.874" fill="#231F20" width="8.782" height="84.488"/>
<g>
</g>
<g>
</g>
<g>
</g>
<g>
</g>
<g>
</g>
<g>
</g>
<g>
</g>
<g>
</g>
<g>
</g>
<g>
</g>
<g>
</g>
<g>
</g>
<g>
</g>
<g>
</g>
<g>
</g>
</svg>
